<?xml version="1.0" standalone="no"?>
<!DOCTYPE svg PUBLIC "-//W3C//DTD SVG 20010904//EN"
 "http://www.w3.org/TR/2001/REC-SVG-20010904/DTD/svg10.dtd">
<svg version="1.0" xmlns="http://www.w3.org/2000/svg"
 width="260.000000pt" height="260.000000pt" viewBox="0 0 260.000000 260.000000"
 preserveAspectRatio="xMidYMid meet">
<metadata>
Created by potrace 1.11, written by Peter Selinger 2001-2013
</metadata>
<g transform="translate(0.000000,260.000000) scale(0.100000,-0.100000)"
fill="#000000" stroke="none">
<path d="M919 2403 c-1 -5 -1 -12 0 -17 1 -5 -5 -6 -13 -3 -9 4 -18 2 -21 -3
-3 -6 -15 -6 -29 0 -16 6 -28 5 -36 -3 -10 -9 -11 -9 -5 3 7 12 6 13 -6 3 -12
-10 -18 -10 -29 0 -12 10 -12 9 -2 -4 6 -8 9 -25 5 -37 -5 -20 -7 -21 -17 -7
-10 14 -12 14 -12 -4 0 -12 4 -21 8 -21 14 0 8 -20 -12 -40 -11 -11 -16 -20
-11 -20 5 0 4 -13 -2 -30 -6 -16 -15 -30 -19 -30 -4 0 -5 -9 -3 -19 2 -11 -3
-22 -11 -25 -9 -3 -12 -11 -9 -17 4 -5 -1 -20 -12 -31 -10 -12 -12 -18 -4 -13
11 6 12 5 5 -6 -9 -14 -10 -19 -13 -40 0 -5 -6 -7 -12 -4 -6 4 -10 1 -8 -6 3
-28 -1 -50 -10 -45 -5 3 -9 -6 -8 -20 0 -15 -5 -29 -10 -33 -5 -3 -10 -17 -10
-30 -1 -13 -7 -29 -14 -35 -9 -8 -10 -6 -5 9 6 16 5 18 -5 8 -10 -10 -10 -16
-2 -24 15 -15 5 -39 -16 -39 -14 0 -14 -2 -1 -10 13 -8 13 -11 -2 -22 -10 -7
-16 -22 -14 -33 2 -12 -9 -34 -28 -55 -17 -19 -21 -26 -8 -16 12 11 22 14 22
9 0 -6 -6 -16 -14 -23 -8 -6 -12 -19 -9 -27 5 -12 2 -15 -9 -11 -8 4 -15 1
-15 -8 0 -7 5 -10 11 -7 6 4 5 0 -1 -9 -7 -8 -10 -18 -6 -21 3 -4 1 -7 -5 -7
-6 0 -16 -10 -22 -22 -11 -22 -10 -22 4 -4 18 23 21 14 5 -15 -6 -11 -15 -17
-22 -12 -7 4 -5 -2 3 -12 14 -17 13 -18 -4 -12 -15 6 -17 5 -7 -6 8 -11 8 -21
-4 -43 -8 -16 -15 -34 -15 -41 0 -6 -5 -15 -12 -19 -7 -5 -8 -3 -3 6 5 9 4 11
-3 6 -9 -5 -9 -13 -2 -27 7 -13 7 -19 0 -19 -5 0 -9 -6 -7 -12 1 -7 -4 -12
-11 -10 -8 1 -11 -2 -7 -8 11 -18 -6 -70 -23 -71 -11 0 -12 -3 -5 -6 9 -3 10
-10 3 -24 -6 -10 -8 -19 -5 -19 3 0 -1 -10 -10 -23 -8 -13 -12 -27 -8 -30 3
-4 1 -8 -5 -8 -26 -3 -31 -4 -38 -11 -3 -4 3 -5 16 -3 16 3 19 1 12 -8 -6 -7
-12 -16 -13 -22 -2 -5 -10 -9 -19 -7 -12 2 -12 1 -2 -6 17 -12 11 -48 -8 -44
-11 3 -11 0 1 -14 11 -14 11 -16 0 -10 -10 7 -12 4 -7 -12 4 -11 2 -23 -4 -27
-6 -3 -8 -10 -5 -14 2 -5 -4 -16 -15 -26 -13 -12 -18 -25 -14 -40 4 -16 0 -26
-13 -34 -21 -12 -16 -12 137 -14 84 -1 95 -5 91 -30 -1 -5 3 -6 8 -2 6 3 8 12
5 20 -4 10 0 13 15 10 16 -3 22 2 27 21 3 13 10 24 16 24 5 0 6 5 2 12 -5 8
-2 9 11 4 15 -5 16 -4 5 9 -10 12 -10 18 0 30 6 8 9 19 6 24 -4 5 -2 12 4 16
6 4 7 11 4 17 -5 7 -2 8 5 4 8 -5 11 -3 10 5 -5 24 12 60 24 52 7 -4 6 1 -2
10 -8 11 -9 17 -3 17 6 0 9 7 6 15 -4 8 -1 15 5 15 6 0 11 7 11 16 0 11 6 14
18 10 16 -6 16 -5 1 7 -15 11 -15 15 -2 32 13 16 15 17 10 3 -4 -11 -2 -17 5
-15 7 1 12 -3 13 -10 0 -6 3 -14 7 -18 9 -9 5 17 -6 33 -4 7 -5 16 -1 20 3 3
10 0 15 -8 6 -8 10 -10 10 -5 0 6 12 12 28 13 21 1 23 0 12 -8 -22 -14 -3 -12
20 3 17 10 22 9 30 -3 6 -10 10 -11 10 -2 0 6 8 12 18 12 14 0 15 -2 2 -10
-12 -7 -10 -9 7 -7 12 0 20 4 17 8 -2 4 12 7 31 7 23 0 35 -5 35 -13 0 -8 4
-16 9 -19 5 -4 7 3 4 13 -4 16 1 19 31 19 20 0 34 -3 31 -7 -2 -4 2 -8 10 -8
8 0 12 4 10 8 -3 4 11 7 32 7 24 0 32 -3 22 -9 -8 -5 -11 -9 -6 -9 4 0 16 6
27 13 17 10 22 9 30 -3 5 -8 10 -10 10 -4 0 7 18 12 45 11 25 0 45 -5 45 -9 0
-5 -5 -6 -12 -2 -7 4 -8 3 -4 -5 6 -9 11 -9 24 1 13 12 14 10 4 -9 -16 -30
-15 -41 2 -18 13 19 15 18 21 -17 4 -20 4 -41 0 -47 -3 -6 0 -9 7 -6 20 8 41
-54 25 -74 -10 -12 -9 -14 8 -7 11 4 16 4 12 0 -4 -4 -3 -12 2 -18 11 -14 41
-114 38 -129 -1 -6 11 -11 26 -11 15 -1 32 -8 38 -16 10 -13 10 -13 6 1 -4 13
6 15 68 15 47 0 71 -4 67 -11 -3 -5 1 -4 9 2 12 10 18 10 29 0 10 -10 11 -9 5
2 -6 11 -2 13 19 7 24 -6 27 -4 24 16 -2 15 2 22 10 20 8 -1 11 2 7 7 -3 6
-12 8 -20 4 -10 -3 -16 1 -17 13 0 11 -2 24 -2 30 -1 6 -8 20 -16 30 -14 18
-14 18 4 4 18 -14 19 -13 13 3 -10 26 0 20 18 -10 9 -16 14 -20 11 -9 -5 14
-2 17 10 12 8 -3 20 -6 25 -6 6 0 7 -10 4 -22 -7 -22 -6 -22 7 -4 13 16 18 17
39 5 13 -7 31 -13 39 -14 9 0 14 -8 13 -20 -1 -18 0 -18 10 -4 12 16 37 15 37
-2 0 -6 -4 -8 -9 -4 -5 3 -12 1 -15 -4 -7 -10 20 -9 30 2 12 11 26 8 18 -4 -4
-7 0 -9 14 -5 11 4 23 2 27 -4 3 -6 11 -8 16 -5 5 4 9 -2 9 -12 0 -15 2 -16
10 -3 7 11 10 11 10 2 0 -7 5 -10 10 -7 6 3 10 1 10 -4 0 -6 7 -11 16 -11 9 0
12 -5 8 -12 -5 -8 -2 -9 10 -5 12 5 16 2 14 -10 -2 -9 4 -18 12 -20 12 -4 12
-3 1 5 -8 6 -9 12 -3 16 6 3 13 -3 17 -14 3 -11 10 -20 14 -20 8 0 31 -45 31
-61 0 -6 -4 -7 -10 -4 -5 3 -10 1 -10 -4 0 -6 7 -11 15 -11 17 0 20 -21 4 -37
-8 -8 -7 -13 2 -18 8 -6 10 -4 4 5 -5 8 -4 11 3 6 7 -4 5 -19 -6 -49 -9 -23
-17 -43 -17 -45 -1 -1 -10 0 -19 4 -9 3 -13 11 -9 17 4 6 1 7 -7 2 -10 -6 -10
-11 3 -20 19 -14 23 -35 6 -35 -5 0 -7 6 -3 13 4 7 3 8 -2 4 -5 -5 -9 -16 -9
-25 0 -9 -9 -18 -19 -20 -14 -3 -17 0 -13 13 4 10 3 14 -4 10 -6 -4 -8 -13 -5
-20 6 -17 -14 -33 -36 -30 -10 2 -18 -1 -18 -6 0 -6 -5 -7 -10 -4 -6 4 -8 10
-5 15 3 5 1 11 -4 14 -5 4 -8 -2 -7 -11 4 -24 -15 -35 -33 -20 -8 7 -12 7 -9
2 4 -7 -14 -11 -48 -11 -33 -1 -51 3 -47 9 4 6 1 7 -8 1 -23 -14 -39 -13 -39
2 0 8 -5 14 -11 14 -5 0 -7 -4 -4 -10 3 -5 -1 -10 -9 -10 -10 0 -13 6 -9 18 5
14 3 13 -10 -3 -15 -18 -16 -18 -17 -2 0 9 -5 17 -11 17 -5 0 -7 -4 -4 -10 3
-6 -1 -7 -9 -4 -9 3 -16 10 -16 15 0 4 -6 6 -13 3 -8 -3 -20 2 -27 11 -7 8
-19 15 -28 15 -8 0 -13 3 -10 6 3 3 -7 19 -23 35 -16 16 -29 31 -29 32 0 1 -4
17 -9 35 -6 18 -6 30 -2 28 4 -3 8 1 8 9 0 8 -4 12 -9 9 -4 -3 -11 2 -15 11
-3 10 0 21 8 25 9 6 5 11 -17 16 -16 4 -32 12 -36 18 -5 8 -8 7 -8 -2 0 -10
-5 -10 -21 -1 -12 6 -19 7 -16 2 10 -17 -103 -9 -115 8 -8 11 -9 11 -4 -3 7
-23 -10 -23 -24 -1 -11 17 -11 17 -6 0 4 -13 1 -17 -12 -15 -30 5 -41 -10 -32
-42 11 -38 10 -42 -9 -58 -14 -11 -14 -11 3 -5 13 4 17 3 12 -5 -4 -7 -4 -12
1 -12 13 0 33 -74 21 -81 -5 -3 0 -9 11 -12 15 -4 21 -13 21 -34 0 -22 2 -25
10 -13 8 12 10 10 10 -9 0 -13 3 -21 7 -18 9 10 43 -45 36 -57 -4 -6 2 -4 12
4 11 9 16 10 11 3 -4 -8 -1 -13 9 -13 9 0 13 -4 10 -10 -3 -5 -1 -10 5 -10 6
0 30 -13 53 -28 46 -32 77 -46 91 -43 5 1 5 -6 2 -16 -6 -14 -4 -15 5 -6 9 9
18 9 38 0 14 -6 28 -14 31 -17 3 -3 19 -6 35 -8 73 -7 85 -9 91 -14 3 -4 12
-4 20 -1 10 4 13 0 8 -13 -5 -18 -5 -18 9 -2 11 14 16 15 27 5 10 -10 11 -9 4
3 -6 12 -2 11 19 -3 18 -12 25 -13 21 -4 -3 8 2 14 10 14 8 0 13 -4 11 -8 -3
-4 2 -9 10 -12 10 -4 12 -1 8 11 -6 15 -5 16 12 2 11 -9 16 -10 11 -2 -4 7 -1
12 8 12 8 0 14 -6 12 -12 -1 -7 -1 -10 1 -5 3 4 10 4 15 1 7 -5 8 -2 3 6 -6
10 -4 12 8 7 9 -3 19 -2 22 3 3 5 13 9 23 8 25 0 72 12 95 23 14 8 18 8 13 0
-11 -18 5 -13 21 7 9 10 11 11 7 2 -5 -10 -1 -9 14 4 12 10 28 16 37 13 8 -4
15 -1 15 5 0 19 33 38 48 26 9 -8 11 -7 6 5 -5 15 31 44 48 39 4 -1 4 6 1 15
-4 11 -3 14 5 9 7 -4 12 -1 12 8 0 8 13 26 30 39 19 16 25 27 17 30 -9 4 -9 6
1 6 6 1 12 6 12 11 0 6 9 29 19 51 11 21 15 37 10 33 -5 -3 -5 4 0 18 8 23 6
140 -4 166 -3 7 0 10 5 7 6 -3 10 -1 10 4 0 6 -4 11 -10 11 -5 0 -10 8 -10 18
0 10 -5 23 -11 29 -7 7 -13 28 -14 48 -2 20 -6 39 -11 43 -4 4 -4 -1 -1 -10 4
-10 2 -18 -3 -18 -5 0 -12 9 -15 20 -3 11 -11 20 -16 20 -6 0 -8 4 -5 9 3 5
-2 17 -12 28 -9 10 -13 12 -8 3 5 -8 -9 4 -33 28 -23 23 -46 40 -51 37 -5 -3
-15 3 -22 13 -7 11 -16 20 -21 20 -26 4 -67 34 -60 45 4 7 0 7 -10 -2 -13 -10
-20 -11 -31 -2 -8 7 -24 14 -37 16 -12 3 -25 8 -28 12 -3 5 -15 10 -26 11 -11
2 -22 7 -25 11 -3 3 -18 8 -35 10 -36 4 -47 10 -40 21 3 5 0 12 -6 16 -8 4 -9
3 -5 -4 10 -17 -19 -15 -54 3 -17 9 -33 16 -37 16 -12 2 -36 10 -62 20 -20 8
-21 12 -10 27 12 16 12 16 -6 0 -17 -16 -20 -16 -49 4 -35 24 -86 77 -86 89 0
18 -2 24 -9 34 -8 9 -7 72 1 105 6 23 39 70 50 70 6 0 4 -8 -3 -17 -13 -16
-12 -17 3 -5 9 8 15 19 12 26 -3 7 6 21 20 30 15 9 26 14 26 10 0 -4 6 -1 13
5 8 6 17 8 20 4 4 -3 0 -11 -9 -17 -13 -10 -13 -12 4 -12 15 0 19 6 16 21 -3
16 2 20 26 22 17 1 30 -2 30 -7 0 -5 -6 -7 -14 -4 -8 3 -16 1 -20 -4 -3 -5 5
-8 16 -7 12 1 24 8 27 16 7 17 53 21 63 5 5 -7 8 -6 9 4 0 10 3 9 8 -4 9 -23
38 -30 38 -10 0 10 -4 11 -14 3 -10 -9 -13 -8 -13 4 0 18 42 15 48 -3 2 -5 8
-10 13 -10 6 0 7 5 4 10 -10 16 78 -21 93 -39 7 -8 10 -22 7 -30 -3 -9 -3 -12
1 -8 4 4 13 2 21 -5 7 -6 16 -8 20 -4 3 3 1 6 -5 6 -6 0 -17 10 -23 23 -11 21
-10 21 12 -3 13 -13 23 -28 22 -32 -2 -5 0 -8 5 -8 14 0 36 -64 36 -107 1 -29
5 -42 13 -39 6 3 17 -1 23 -9 12 -15 53 -28 44 -14 -3 5 -11 9 -19 9 -8 0 -17
5 -20 10 -7 11 30 8 41 -3 4 -3 15 -2 25 4 13 7 19 6 19 -1 0 -8 6 -8 20 0 15
8 20 8 20 -2 0 -9 3 -9 11 -1 9 9 16 9 31 0 14 -9 20 -9 26 0 4 7 16 11 27 9
25 -4 36 13 24 36 -7 12 -6 18 1 18 6 0 8 5 3 13 -12 20 -13 40 0 56 9 12 9
13 0 8 -7 -5 -16 1 -23 13 -10 18 -7 24 13 21 17 -3 5 10 -18 19 -22 8 -24 13
-15 30 6 11 8 21 5 21 -3 1 -9 2 -13 3 -10 1 -42 32 -42 39 0 8 -110 117 -110
109 0 -4 -4 -2 -8 3 -4 6 -19 16 -34 24 -15 8 -25 17 -23 21 2 4 -7 6 -20 4
-14 -1 -31 3 -38 9 -14 13 -28 18 -71 23 -17 2 -41 14 -55 27 -14 12 -20 14
-12 4 18 -23 8 -33 -13 -12 -9 9 -16 12 -16 6 0 -6 -5 -11 -11 -11 -5 0 -7 5
-4 10 3 6 1 10 -5 10 -6 0 -8 5 -4 12 4 7 3 8 -4 4 -6 -4 -9 -13 -6 -21 6 -14
-12 -15 -31 -3 -6 4 -17 3 -25 -2 -9 -5 -19 -5 -27 2 -9 7 -13 7 -13 0 0 -5
-20 -9 -45 -8 -25 1 -46 -3 -48 -9 -3 -5 -8 -7 -12 -3 -4 4 -2 16 5 25 8 10 1
5 -14 -10 -17 -17 -36 -27 -49 -25 -12 2 -28 -4 -35 -12 -9 -9 -11 -10 -7 -1
6 10 2 10 -16 -2 -13 -8 -32 -13 -41 -12 -10 2 -21 -2 -25 -7 -4 -7 -1 -8 8
-3 9 5 8 2 -2 -10 -9 -9 -28 -18 -42 -18 -17 -2 -23 -6 -19 -16 3 -9 1 -12 -6
-7 -7 4 -15 1 -18 -7 -3 -8 -19 -25 -37 -37 -19 -14 -26 -17 -18 -7 12 15 11
17 -2 17 -11 0 -14 5 -10 17 4 11 3 14 -5 9 -8 -5 -12 0 -12 13 0 12 6 21 13
21 6 1 -1 8 -16 16 -24 13 -28 20 -22 41 3 15 2 22 -4 19 -19 -12 -18 20 3 44
l21 25 -22 -19 c-24 -20 -21 -23 -38 30 -3 9 0 24 7 33 11 14 11 14 -3 4 -18
-15 -30 -8 -22 13 3 8 0 14 -6 14 -6 0 -11 11 -11 25 0 14 -4 25 -10 25 -5 0
-10 4 -10 9 0 6 10 8 21 6 12 -3 18 -1 15 3 -4 4 -11 7 -15 7 -4 0 -15 8 -24
17 -12 12 -14 18 -4 21 9 4 9 6 -1 6 -7 1 -10 6 -7 11 3 6 1 10 -5 10 -6 0 -8
5 -5 10 3 6 1 10 -4 10 -15 0 -14 37 1 42 7 3 5 7 -6 11 -12 5 -15 3 -10 -6 5
-8 4 -9 -4 -2 -7 6 -13 23 -14 38 -1 15 -5 27 -9 27 -4 0 -9 9 -12 20 -3 11
-1 18 4 14 5 -3 6 2 3 10 -3 9 -10 14 -14 11 -11 -7 -22 24 -13 37 3 6 1 8 -5
4 -5 -3 -13 0 -15 6 -4 10 -8 10 -15 -1 -7 -9 -12 -10 -16 -2 -4 6 -11 9 -16
6 -5 -3 -11 -1 -15 5 -3 5 -12 10 -18 10 -8 0 -8 -3 1 -9 11 -7 11 -9 -2 -14
-14 -6 -21 4 -17 26 0 4 -1 7 -4 7 -3 0 -6 -3 -6 -7z m18 -428 c-2 -5 4 -24
14 -41 13 -24 15 -35 6 -44 -9 -9 -9 -11 -1 -7 9 5 26 -23 21 -36 0 -1 5 -12
12 -25 12 -23 22 -55 23 -79 1 -7 6 -13 11 -13 5 0 7 -9 4 -19 -3 -12 1 -22
10 -25 8 -4 11 -11 6 -18 -11 -19 -13 -39 -2 -32 5 3 6 11 3 17 -4 7 -5 10 -1
7 3 -3 6 -8 6 -13 0 -4 8 -21 17 -38 11 -23 12 -29 2 -23 -7 4 -5 -2 6 -14 10
-11 19 -32 20 -46 0 -14 4 -26 9 -26 4 0 7 -4 7 -10 0 -5 -6 -7 -14 -4 -8 3
-17 0 -21 -6 -3 -6 -3 -10 2 -9 4 1 17 1 27 0 24 -1 16 -10 -14 -16 -12 -2
-25 -7 -29 -10 -3 -4 7 -4 22 -1 15 2 27 1 27 -3 0 -4 -18 -8 -41 -9 -22 -1
-46 -5 -51 -9 -6 -3 -8 -2 -5 4 4 6 -16 9 -51 7 -31 -1 -61 1 -67 4 -17 11
-35 11 -29 0 4 -6 -22 -8 -72 -6 -64 3 -78 6 -80 21 -1 9 2 19 6 22 5 3 7 -3
5 -13 -2 -12 3 -18 17 -19 20 -2 20 -1 2 12 -11 8 -15 15 -11 15 4 0 3 9 -3
20 -8 14 -8 20 0 20 6 0 15 -11 20 -25 12 -31 15 -31 15 -1 0 13 -3 22 -7 20
-4 -3 -12 4 -18 15 -7 14 -7 22 2 27 7 5 8 3 3 -6 -5 -8 -4 -11 3 -7 5 4 8 16
5 27 -3 12 1 22 11 26 9 3 16 10 16 16 0 5 -5 6 -11 2 -7 -4 -6 3 2 17 13 23
14 28 17 57 1 7 7 10 12 7 7 -4 9 2 4 19 -4 17 -2 26 6 26 6 0 8 5 5 10 -3 6
-2 10 4 10 6 0 7 7 4 17 -5 12 -3 14 7 8 9 -5 11 -4 6 4 -11 17 3 53 17 44 8
-4 7 -1 -1 9 -10 13 -10 18 -1 24 8 5 9 3 4 -6 -5 -9 -4 -11 4 -6 9 6 9 11 -1
24 -11 13 -11 14 1 7 11 -6 13 -4 8 8 -3 9 0 18 9 21 8 3 14 11 14 18 0 9 -3
8 -10 -2 -5 -8 -10 -11 -10 -7 0 4 7 19 16 32 9 14 13 25 9 25 -4 0 -2 6 4 13
6 8 7 17 3 22 -4 4 3 1 16 -6 12 -8 21 -18 19 -24z"/>
<path d="M907 1983 c-3 -5 3 -19 14 -32 10 -13 19 -18 19 -13 0 6 -5 14 -10
17 -6 4 -8 10 -5 15 3 5 1 11 -4 14 -5 4 -12 3 -14 -1z"/>
<path d="M900 1940 c0 -5 5 -10 11 -10 5 0 7 5 4 10 -3 6 -8 10 -11 10 -2 0
-4 -4 -4 -10z"/>
<path d="M908 1903 c7 -3 16 -2 19 1 4 3 -2 6 -13 5 -11 0 -14 -3 -6 -6z"/>
<path d="M976 1762 c-3 -5 1 -9 9 -9 8 0 12 4 9 9 -3 4 -7 8 -9 8 -2 0 -6 -4
-9 -8z"/>
<path d="M1066 1543 c-6 -14 -5 -15 5 -6 7 7 10 15 7 18 -3 3 -9 -2 -12 -12z"/>
<path d="M741 2284 c0 -11 3 -14 6 -6 3 7 2 16 -1 19 -3 4 -6 -2 -5 -13z"/>
<path d="M715 2230 c-3 -5 -1 -10 4 -10 6 0 11 5 11 10 0 6 -2 10 -4 10 -3 0
-8 -4 -11 -10z"/>
<path d="M1696 1897 c3 -10 9 -15 12 -12 3 3 0 11 -7 18 -10 9 -11 8 -5 -6z"/>
<path d="M1916 1878 c3 -5 10 -6 15 -3 13 9 11 12 -6 12 -8 0 -12 -4 -9 -9z"/>
<path d="M1256 1833 c-6 -14 -5 -15 5 -6 7 7 10 15 7 18 -3 3 -9 -2 -12 -12z"/>
<path d="M2026 1838 c3 -5 10 -6 15 -3 13 9 11 12 -6 12 -8 0 -12 -4 -9 -9z"/>
<path d="M2096 1818 c3 -5 10 -6 15 -3 13 9 11 12 -6 12 -8 0 -12 -4 -9 -9z"/>
<path d="M1313 1775 c0 -8 4 -12 9 -9 5 3 6 10 3 15 -9 13 -12 11 -12 -6z"/>
<path d="M1325 1750 c-4 -6 -11 -7 -17 -4 -7 4 -8 2 -4 -5 6 -9 11 -9 22 0 14
11 18 19 10 19 -3 0 -8 -5 -11 -10z"/>
<path d="M2190 1741 c0 -5 5 -13 10 -16 6 -3 10 -2 10 4 0 5 -4 13 -10 16 -5
3 -10 2 -10 -4z"/>
<path d="M2226 1722 c-3 -5 1 -9 9 -9 8 0 12 4 9 9 -3 4 -7 8 -9 8 -2 0 -6 -4
-9 -8z"/>
<path d="M2260 1666 c0 -2 7 -7 16 -10 8 -3 12 -2 9 4 -6 10 -25 14 -25 6z"/>
<path d="M1731 1633 c-1 -17 16 -25 25 -12 4 7 3 9 -4 5 -5 -3 -13 0 -15 6 -4
9 -6 10 -6 1z"/>
<path d="M1875 1610 c-3 -6 1 -7 9 -4 18 7 21 14 7 14 -6 0 -13 -4 -16 -10z"/>
<path d="M1584 1595 c-4 -8 -11 -12 -17 -8 -6 3 -7 1 -3 -5 10 -16 14 -15 26
8 6 11 8 20 5 20 -3 0 -8 -7 -11 -15z"/>
<path d="M1935 1590 c-3 -5 -1 -10 4 -10 6 0 11 5 11 10 0 6 -2 10 -4 10 -3 0
-8 -4 -11 -10z"/>
<path d="M1510 1520 c-13 -8 -12 -10 3 -10 9 0 17 5 17 10 0 12 -1 12 -20 0z"/>
<path d="M1984 1519 c-5 -8 -3 -9 6 -4 7 4 16 2 22 -6 8 -12 9 -12 6 0 -6 20
-24 25 -34 10z"/>
<path d="M1496 1482 c-2 -4 4 -8 14 -8 10 0 16 4 14 8 -3 4 -9 8 -14 8 -5 0
-11 -4 -14 -8z"/>
<path d="M2014 1478 c-5 -7 -3 -8 6 -3 10 6 12 4 7 -9 -4 -10 -3 -15 3 -11 13
8 13 35 1 35 -6 0 -13 -5 -17 -12z"/>
<path d="M415 1460 c-3 -5 -1 -10 4 -10 6 0 11 5 11 10 0 6 -2 10 -4 10 -3 0
-8 -4 -11 -10z"/>
<path d="M2348 1463 c7 -3 16 -2 19 1 4 3 -2 6 -13 5 -11 0 -14 -3 -6 -6z"/>
<path d="M1491 1407 c2 -1 15 -11 29 -22 l25 -20 -19 23 c-11 12 -24 22 -29
22 -6 0 -8 -1 -6 -3z"/>
<path d="M1530 1333 c26 -37 36 -43 21 -14 -6 10 -7 22 -3 27 4 5 3 6 -2 2 -5
-4 -16 -2 -24 5 -9 6 -5 -3 8 -20z"/>
<path d="M1570 1301 c0 -6 4 -12 8 -15 5 -3 9 1 9 9 0 8 -4 15 -9 15 -4 0 -8
-4 -8 -9z"/>
<path d="M1611 1274 c0 -11 3 -14 6 -6 3 7 2 16 -1 19 -3 4 -6 -2 -5 -13z"/>
<path d="M333 1230 c-1 -11 2 -22 6 -24 4 -3 7 4 6 14 -2 27 -10 33 -12 10z"/>
<path d="M1756 1227 c3 -10 9 -15 12 -12 3 3 0 11 -7 18 -10 9 -11 8 -5 -6z"/>
<path d="M1140 1196 c0 -2 8 -10 18 -17 15 -13 16 -12 3 4 -13 16 -21 21 -21
13z"/>
<path d="M1959 1178 c-6 -20 -6 -39 0 -42 4 -3 7 6 7 20 0 20 -4 32 -7 22z"/>
<path d="M1199 1133 c-13 -16 -12 -17 4 -4 16 13 21 21 13 21 -2 0 -10 -8 -17
-17z"/>
<path d="M1990 1140 c0 -5 5 -10 11 -10 5 0 7 5 4 10 -3 6 -8 10 -11 10 -2 0
-4 -4 -4 -10z"/>
<path d="M616 1115 c-9 -26 -7 -32 5 -12 6 10 9 21 6 23 -2 3 -7 -2 -11 -11z"/>
<path d="M2090 1101 c0 -6 4 -13 10 -16 6 -3 7 1 4 9 -7 18 -14 21 -14 7z"/>
<path d="M1240 1050 c6 -11 13 -20 16 -20 2 0 0 9 -6 20 -6 11 -13 20 -16 20
-2 0 0 -9 6 -20z"/>
<path d="M575 999 c-4 -6 -5 -12 -2 -15 2 -3 7 2 10 11 7 17 1 20 -8 4z"/>
<path d="M1274 950 c0 -13 4 -16 10 -10 7 7 7 13 0 20 -6 6 -10 3 -10 -10z"/>
<path d="M2274 956 c1 -8 5 -18 8 -22 4 -3 5 1 4 10 -1 8 -5 18 -8 22 -4 3 -5
-1 -4 -10z"/>
<path d="M1597 939 c7 -7 15 -10 18 -7 3 3 -2 9 -12 12 -14 6 -15 5 -6 -5z"/>
<path d="M285 840 c3 -5 8 -10 11 -10 2 0 4 5 4 10 0 6 -5 10 -11 10 -5 0 -7
-4 -4 -10z"/>
<path d="M336 833 c-6 -14 -5 -15 5 -6 7 7 10 15 7 18 -3 3 -9 -2 -12 -12z"/>
<path d="M1406 842 c-3 -5 1 -9 9 -9 8 0 12 4 9 9 -3 4 -7 8 -9 8 -2 0 -6 -4
-9 -8z"/>
<path d="M2013 765 c0 -8 4 -15 9 -15 4 0 8 4 8 9 0 6 -4 12 -8 15 -5 3 -9 -1
-9 -9z"/>
<path d="M1295 760 c3 -5 8 -10 11 -10 2 0 4 5 4 10 0 6 -5 10 -11 10 -5 0 -7
-4 -4 -10z"/>
<path d="M2015 691 c-3 -5 -2 -12 3 -15 5 -3 9 1 9 9 0 17 -3 19 -12 6z"/>
<path d="M2350 656 c0 -2 8 -10 18 -17 15 -13 16 -12 3 4 -13 16 -21 21 -21
13z"/>
<path d="M2033 635 c0 -8 4 -12 9 -9 5 3 6 10 3 15 -9 13 -12 11 -12 -6z"/>
<path d="M1474 602 c4 -3 14 -7 22 -8 9 -1 13 0 10 4 -4 3 -14 7 -22 8 -9 1
-13 0 -10 -4z"/>
<path d="M1150 566 c0 -2 7 -7 16 -10 8 -3 12 -2 9 4 -6 10 -25 14 -25 6z"/>
<path d="M1565 520 c-3 -6 1 -7 9 -4 18 7 21 14 7 14 -6 0 -13 -4 -16 -10z"/>
<path d="M1920 511 c0 -6 4 -13 10 -16 6 -3 7 1 4 9 -7 18 -14 21 -14 7z"/>
<path d="M1773 485 c0 -8 4 -12 9 -9 5 3 6 10 3 15 -9 13 -12 11 -12 -6z"/>
<path d="M2277 432 c-15 -16 -15 -19 -2 -19 8 0 13 3 10 5 -3 3 0 11 6 19 17
20 5 16 -14 -5z"/>
<path d="M2256 358 c3 -5 10 -6 15 -3 13 9 11 12 -6 12 -8 0 -12 -4 -9 -9z"/>
<path d="M2198 343 c7 -3 16 -2 19 1 4 3 -2 6 -13 5 -11 0 -14 -3 -6 -6z"/>
<path d="M2155 309 c-4 -6 -5 -12 -2 -15 2 -3 7 2 10 11 7 17 1 20 -8 4z"/>
<path d="M1476 262 c-2 -4 4 -8 14 -8 10 0 16 4 14 8 -3 4 -9 8 -14 8 -5 0
-11 -4 -14 -8z"/>
<path d="M1910 230 c0 -6 7 -10 15 -10 8 0 15 2 15 4 0 2 -7 6 -15 10 -8 3
-15 1 -15 -4z"/>
</g>
</svg>
